<svg xmlns="http://www.w3.org/2000/svg" viewBox="0 0 200 140" role="img" aria-label="Расходники">
  <rect width="200" height="140" fill="#F0EDE6"/>
  <!-- Tape -->
  <g transform="translate(35,30)">
    <circle cx="35" cy="35" r="32" fill="#0F1B2D"/>
    <circle cx="35" cy="35" r="20" fill="#F77F00"/>
    <circle cx="35" cy="35" r="10" fill="#0F1B2D"/>
    <rect x="35" y="60" width="50" height="14" rx="2" fill="#F77F00"/>
  </g>
  <!-- Sandpaper -->
  <g transform="translate(120,40)">
    <rect x="0" y="0" width="60" height="50" rx="2" fill="#8B5E3C"/>
    <g fill="#0F1B2D">
      <circle cx="8" cy="10" r="1.5"/><circle cx="20" cy="8" r="1.5"/><circle cx="32" cy="14" r="1.5"/>
      <circle cx="44" cy="10" r="1.5"/><circle cx="54" cy="16" r="1.5"/>
      <circle cx="12" cy="22" r="1.5"/><circle cx="24" cy="26" r="1.5"/><circle cx="38" cy="22" r="1.5"/>
      <circle cx="50" cy="28" r="1.5"/><circle cx="6" cy="36" r="1.5"/><circle cx="18" cy="40" r="1.5"/>
      <circle cx="30" cy="36" r="1.5"/><circle cx="42" cy="42" r="1.5"/><circle cx="54" cy="40" r="1.5"/>
    </g>
  </g>
  <!-- Roller -->
  <g transform="translate(20,90)">
    <rect x="0" y="0" width="80" height="14" rx="6" fill="#cfd6e0"/>
    <rect x="84" y="2" width="3" height="10" fill="#0F1B2D"/>
    <path d="M87,7 L110,7 L114,18" stroke="#0F1B2D" stroke-width="3" fill="none" stroke-linecap="round"/>
  </g>
</svg>
