<svg xmlns="http://www.w3.org/2000/svg" viewBox="0 0 200 140" role="img" aria-label="Крепёж и метизы">
  <rect width="200" height="140" fill="#F3F0E8"/>
  <!-- Screw 1 -->
  <g transform="translate(30,20)">
    <ellipse cx="14" cy="6" rx="14" ry="5" fill="#9aa3ad"/>
    <line x1="6" y1="6" x2="22" y2="6" stroke="#0F1B2D" stroke-width="2"/>
    <path d="M4,10 L24,10 L20,90 L8,90 Z" fill="#9aa3ad"/>
    <g stroke="#0F1B2D" stroke-width="1.5">
      <line x1="6" y1="18" x2="22" y2="22"/>
      <line x1="6" y1="32" x2="22" y2="36"/>
      <line x1="7" y1="46" x2="21" y2="50"/>
      <line x1="8" y1="60" x2="20" y2="64"/>
      <line x1="9" y1="74" x2="19" y2="78"/>
    </g>
    <polygon points="8,90 20,90 14,104" fill="#9aa3ad"/>
  </g>
  <!-- Bolt -->
  <g transform="translate(90,40)">
    <polygon points="0,0 28,0 34,12 28,24 0,24 -6,12" fill="#F77F00"/>
    <circle cx="14" cy="12" r="6" fill="#0F1B2D"/>
    <rect x="14" y="22" width="10" height="50" fill="#F77F00"/>
    <g stroke="#0F1B2D" stroke-width="1.5">
      <line x1="13" y1="34" x2="25" y2="34"/>
      <line x1="13" y1="44" x2="25" y2="44"/>
      <line x1="13" y1="54" x2="25" y2="54"/>
      <line x1="13" y1="64" x2="25" y2="64"/>
    </g>
  </g>
  <!-- Nut -->
  <g transform="translate(140,55)">
    <polygon points="0,0 32,0 40,16 32,32 0,32 -8,16" fill="#0F1B2D"/>
    <circle cx="16" cy="16" r="9" fill="#F3F0E8"/>
  </g>
</svg>
